<svg width="18" height="15" viewBox="0 0 18 15" fill="none" xmlns="http://www.w3.org/2000/svg">
<path d="M14.5094 1.65505C13.5877 1.20332 12.6227 0.865179 11.6327 0.646501C11.536 0.850521 11.441 1.06928 11.3668 1.25479L11.2169 1.62938L10.8191 1.56202C9.58556 1.35315 8.32994 1.3466 7.09433 1.54257L6.69603 1.60574L6.54996 1.22985C6.46926 1.0222 6.38142 0.818 6.28663 0.617691C5.29288 0.825232 4.32306 1.15381 3.39597 1.59734C1.33064 4.94125 0.726351 8.20224 0.95694 11.4366C2.05972 12.3038 3.27557 12.9856 4.56325 13.4603C4.72275 13.2114 4.87228 12.9556 5.01126 12.6928C4.68065 12.5338 4.35839 12.3555 4.04594 12.1587C3.92263 12.0812 3.84093 11.9624 3.80585 11.8348L14.5094 1.65505ZM14.5094 1.65505C16.2856 4.55245 17.1627 7.79713 16.8481 11.5191C15.7353 12.3758 14.5109 13.0449 13.2167 13.505C13.0617 13.2544 12.915 12.9969 12.7777 12.733C13.1104 12.5786 13.4344 12.4032 13.748 12.208L13.748 12.208L13.752 12.2055C13.8319 12.1546 13.8949 12.0859 13.9384 12.0085L14.5094 1.65505ZM5.61186 12.4791L5.61261 12.4783L5.6154 12.4756L5.65391 12.4383C5.66216 12.4469 5.66761 12.4581 5.66947 12.4703C5.67132 12.4826 5.66946 12.4951 5.66418 12.5061C5.41064 13.0397 5.11687 13.5467 4.78711 14.0271L5.61186 12.4791ZM5.61186 12.4791L5.61234 12.479M5.61186 12.4791L5.61234 12.479M5.61234 12.479L5.61421 12.4787L5.61234 12.479ZM3.99483 11.2479L3.99489 11.2479C4.0786 11.1808 4.16224 11.1106 4.24157 11.0406L4.24637 11.0364L4.2464 11.0364C4.32387 10.9698 4.42076 10.9239 4.52768 10.9086C4.63479 10.8933 4.74275 10.9101 4.83872 10.9551L4.85017 10.9605L4.8501 10.9606C7.48732 12.2789 10.3349 12.2926 12.9488 11.004L12.9603 10.9983L12.9604 10.9984C13.0568 10.9539 13.1651 10.9377 13.2723 10.9536C13.3793 10.9694 13.4763 11.0159 13.5537 11.083L13.5609 11.0892L13.5608 11.0893C13.639 11.1597 13.7214 11.2305 13.804 11.2981C13.8753 11.356 13.9289 11.4288 13.9635 11.5079C13.9986 11.5884 14.014 11.6749 14.0098 11.7605L14.0098 11.7605C14.0056 11.846 13.9819 11.9312 13.9384 12.0085L3.99483 11.2479ZM3.99483 11.2479L3.98725 11.2542M3.99483 11.2479L3.98725 11.2542M3.98725 11.2542C3.92053 11.3099 3.86976 11.3788 3.8361 11.4535M3.98725 11.2542L3.8361 11.4535M3.8361 11.4535C3.78133 11.5739 3.7713 11.709 3.80585 11.8347L3.8361 11.4535ZM4.57575 11.3106C4.57682 11.3113 4.57789 11.3119 4.57896 11.3126L4.57575 11.3106ZM5.21355 12.2894L5.21256 12.2915L5.21355 12.2894ZM14.8698 1.2872C14.8679 1.28215 14.8651 1.27759 14.8614 1.27381C14.8578 1.27004 14.8535 1.26713 14.8487 1.26527L14.8698 1.2872ZM4.89131 13.5762L4.88782 13.575C4.88898 13.5754 4.89015 13.5758 4.89131 13.5762ZM6.53625 0.111434L6.53396 0.115791L6.53625 0.111435L6.53625 0.111434ZM4.07658 7.7465C4.0703 8.94885 4.89299 10.1012 6.09214 10.1075C7.30538 10.1138 8.12455 8.96911 8.13223 7.77081C8.15214 6.56999 7.33403 5.41189 6.11669 5.40553C4.90221 5.39919 4.08285 6.54613 4.07658 7.7465ZM9.7247 7.77599C9.71842 8.97859 10.5424 10.1307 11.7403 10.137C12.961 10.1434 13.7726 8.9973 13.7803 7.80054C13.8014 6.59888 12.9816 5.44138 11.7648 5.43502C10.5503 5.42868 9.73096 6.57562 9.7247 7.77599Z" fill="#999999" stroke="#999999"/>
</svg>
