<svg width="17" height="17" viewBox="0 0 17 17" fill="none" xmlns="http://www.w3.org/2000/svg">
<path d="M16.781 8.07275C16.781 10.1945 15.9382 12.2293 14.4379 13.7296C12.9376 15.2299 10.9027 16.0728 8.78101 16.0728C6.65927 16.0728 4.62444 15.2299 3.12415 13.7296C1.62386 12.2293 0.781006 10.1945 0.781006 8.07275C0.781006 5.95102 1.62386 3.91619 3.12415 2.4159C4.62444 0.915609 6.65927 0.0727539 8.78101 0.0727539C10.9027 0.0727539 12.9376 0.915609 14.4379 2.4159C15.9382 3.91619 16.781 5.95102 16.781 8.07275ZM9.06801 5.97875C8.29001 6.30275 6.73401 6.97275 4.40201 7.98875C4.02401 8.13875 3.82501 8.28675 3.80701 8.43075C3.77701 8.67375 4.08201 8.76975 4.49701 8.90075L4.67201 8.95575C5.08001 9.08875 5.63001 9.24375 5.91501 9.24975C6.17501 9.25575 6.46401 9.14975 6.78301 8.92975C8.96201 7.45875 10.087 6.71575 10.157 6.69975C10.207 6.68775 10.277 6.67375 10.323 6.71575C10.37 6.75675 10.365 6.83575 10.36 6.85675C10.33 6.98575 9.13301 8.09775 8.51401 8.67375C8.32101 8.85375 8.18401 8.98075 8.15601 9.00975C8.09435 9.07277 8.03167 9.13477 7.96801 9.19575C7.58801 9.56175 7.30401 9.83575 7.98301 10.2838C8.31001 10.4998 8.57201 10.6768 8.83301 10.8548C9.11701 11.0488 9.40101 11.2418 9.76901 11.4838C9.86201 11.5438 9.95201 11.6088 10.039 11.6708C10.37 11.9068 10.669 12.1188 11.036 12.0848C11.25 12.0648 11.471 11.8648 11.583 11.2648C11.848 9.84775 12.369 6.77875 12.489 5.51375C12.4963 5.4086 12.492 5.30295 12.476 5.19875C12.4666 5.11467 12.4259 5.03721 12.362 4.98175C12.271 4.91894 12.1625 4.8864 12.052 4.88875C11.752 4.89375 11.289 5.05475 9.06801 5.97875Z" fill="#999999"/>
</svg>
