<svg width="21" height="15" viewBox="0 0 21 15" fill="none" xmlns="http://www.w3.org/2000/svg">
<path d="M19.448 4.1026L19.4478 4.10079C19.392 3.46332 19.3095 2.8692 19.1963 2.43588C19.1071 2.09717 18.9302 1.78749 18.6832 1.53785C18.4361 1.28815 18.1274 1.10724 17.7879 1.0134C17.4862 0.930987 16.9399 0.857722 16.2377 0.79752C15.547 0.738297 14.741 0.694356 13.9419 0.661893C12.5538 0.605498 11.1997 0.584248 10.5329 0.576673L10.1709 0.574783L9.93049 0.573528C8.74594 0.571533 7.56143 0.586418 6.37731 0.618179L6.16568 0.625705L6.16268 0.625812L6.16268 0.625803L6.05515 0.628978L5.84167 0.635283L5.6326 0.642765C5.63228 0.642777 5.63196 0.64279 5.63164 0.642803C4.22792 0.698487 2.96698 0.791212 2.42026 0.933352C2.07989 1.02337 1.76941 1.20084 1.51983 1.44783C1.2701 1.69496 1.09011 2.003 0.997703 2.34098L19.448 4.1026ZM19.448 4.1026L19.4596 4.22934L19.4849 4.54668L19.4852 4.55051L19.494 4.67339C19.494 4.67381 19.494 4.67424 19.4941 4.67466C19.5681 5.79468 19.5726 6.84563 19.5727 7.07727L19.5722 7.1683C19.5697 7.4087 19.5525 8.53122 19.4579 9.69681C19.4579 9.6969 19.4579 9.69699 19.4579 9.69709L19.4477 9.82241L19.4473 9.82755L19.4358 9.95146L19.448 4.1026ZM5.98984 13.4751L5.99235 13.4752L6.0984 13.4806L6.30775 13.4891C7.97483 13.5548 9.56623 13.5706 9.94925 13.5726L10.1259 13.5735C10.1261 13.5735 10.1263 13.5735 10.1265 13.5735C10.5071 13.5748 12.0692 13.5758 13.7156 13.5291C14.5396 13.5058 15.3803 13.4705 16.1027 13.4179C16.8372 13.3644 17.4109 13.2951 17.7241 13.2131C18.0648 13.1231 18.3755 12.9456 18.6253 12.6984C18.8749 12.4514 19.0549 12.1435 19.1473 11.8057C19.2769 11.3293 19.3701 10.6579 19.4358 9.9519L5.98984 13.4751ZM5.98984 13.4751L5.77612 13.4652L5.564 13.4555C5.56382 13.4555 5.56364 13.4555 5.56346 13.4554C4.15874 13.3863 2.89972 13.2815 2.35634 13.1317L2.35605 13.1316C2.01644 13.0382 1.70762 12.8575 1.46045 12.6079C1.21338 12.3584 1.03657 12.0488 0.947527 11.7102C0.823138 11.2345 0.737038 10.5622 0.678747 9.8563L0.669629 9.72826L0.669603 9.7279M5.98984 13.4751L0.669603 9.7279M0.669603 9.7279L0.660421 9.60033M0.669603 9.7279L0.660421 9.60033M0.660421 9.60033C0.660398 9.59999 0.660375 9.59965 0.660352 9.59931C0.603889 8.76675 0.574526 7.9326 0.572308 7.09815M0.660421 9.60033L0.572308 7.09815M0.572308 7.09815L0.573086 6.94924C0.576999 6.68098 0.591804 5.76953 0.663368 4.76605C0.66338 4.76587 0.663393 4.7657 0.663405 4.76553L0.672749 4.63832L0.672776 4.63833L0.673099 4.6332L0.676885 4.57324L0.68701 4.45044L0.715772 4.13149L0.728658 4.00486L0.728661 4.00487L0.728839 4.00305C0.791329 3.36593 0.880119 2.77169 0.997667 2.34111L0.572308 7.09815ZM8.34114 3.62965L7.5933 3.19241L7.58877 4.05868L7.55744 10.0602L7.55292 10.9261L8.30512 10.4971L13.5173 7.52476L14.2694 7.09583L13.522 6.65879L8.34114 3.62965Z" fill="#999999" stroke="#999999"/>
</svg>
